<svg id="visual" viewBox="0 0 960 540" width="960" height="540" xmlns="http://www.w3.org/2000/svg" xmlns:xlink="http://www.w3.org/1999/xlink" version="1.1"><rect x="0" y="0" width="960" height="540" fill="#5dbbab"></rect><defs><linearGradient id="grad1_0" x1="43.8%" y1="0%" x2="100%" y2="100%"><stop offset="14.444444444444446%" stop-color="#5dbbab" stop-opacity="1"></stop><stop offset="85.55555555555554%" stop-color="#5dbbab" stop-opacity="1"></stop></linearGradient></defs><defs><linearGradient id="grad2_0" x1="0%" y1="0%" x2="56.3%" y2="100%"><stop offset="14.444444444444446%" stop-color="#5dbbab" stop-opacity="1"></stop><stop offset="85.55555555555554%" stop-color="#5dbbab" stop-opacity="1"></stop></linearGradient></defs><g transform="translate(960, 0)"><path d="M0 324C-42.1 290.8 -84.1 257.5 -135.5 234.7C-186.9 211.8 -247.6 199.4 -280.6 162C-313.6 124.6 -318.8 62.3 -324 0L0 0Z" fill="#FFFFFF"></path></g><g transform="translate(0, 540)"><path d="M0 -324C47.1 -299.5 94.2 -275.1 145 -251.1C195.8 -227.2 250.2 -203.8 280.6 -162C311 -120.2 317.5 -60.1 324 0L0 0Z" fill="#FFFFFF"></path></g></svg>